<?xml version="1.0" encoding="UTF-8"?>
<svg id="Calque_2" data-name="Calque 2" xmlns="http://www.w3.org/2000/svg" viewBox="0 0 651.3 188.49">
  <defs>
    <style>
      .cls-1 {
      fill-rule: evenodd;
      }

      .cls-1, .cls-2 {
      fill: #004899;
      }

      .cls-3 {
      fill: #e00069;
      }
    </style>
  </defs>
  <g id="Logo">
    <g>
      <g>
        <path class="cls-2" d="M172.07,97.85c-33.85,0-63.66-13.3-63.66-48.92C108.41,12.84,138.81,0,172.07,0c33.96,0,63.25,13.3,63.25,48.92,0,36.79-31.09,48.93-63.25,48.93ZM172.07,18.95c-26.39,0-39.09,11.68-39.09,29.97,0,17.78,11.86,29.98,39.09,29.98,28.43,0,38.82-13.29,38.82-29.97,0-18.55-12.64-29.98-38.82-29.98Z"/>
        <path class="cls-1" d="M334.95,94.22l-20.81-23.52c-5.96-6.24-7.03-7.36-18.11-7.36h-21.23v28.64c.01,1.87-1.5,3.38-3.37,3.38h-17.37c-1.87,0-3.38-1.52-3.38-3.39V9.94c0-4.08,3.24-7.35,7.32-7.38h62.27c23.86.03,37,10.67,37,30.33s-16.71,26.59-21.19,28l26.34,33.26c.39.49.04,1.22-.59,1.22h-24.34c-1.01,0-1.91-.44-2.53-1.14ZM316.77,44.69h-41.98v-21.42h41.98c13.27,0,16.06,5.82,16.06,10.71s-2.79,10.71-16.06,10.71Z"/>
        <path class="cls-2" d="M104.11,5.93v16.19c0,.73-.58,1.32-1.31,1.32l-78.69-.04c0,3.72.01,5.26,5.95,5.78l47.32,4.19c17.98,1.56,18.01,30.23.05,31.87-14.53,1.33-37.66,3.3-45.11,3.95-5.3.46-8.21,2.01-8.21,5.91v16.88c.01,1.87-1.5,3.37-3.37,3.37H3.3c-1.87,0-3.3-1.52-3.3-3.38v-22.98c.01-8.22,2.75-13.45,9.31-14.08,7.84-.75,56.12-3.51,56.12-3.51,1.44-.7,1.42-2.64-.03-3.31,0,0-46.93-2.33-55.77-3.11C2.01,44.3-.01,38.58,0,30.7V9.9C0,5.84,3.35,2.55,7.41,2.55h93.33c1.87,0,3.38,1.51,3.38,3.38Z"/>
        <path class="cls-2" d="M500.73,2.55c-4.04,0-7.34,3.27-7.34,7.31v82.1c0,1.87,1.49,3.39,3.36,3.39h17.37c1.87,0,3.39-1.51,3.38-3.38V5.94c0-1.87-1.51-3.39-3.38-3.39h-13.4Z"/>
        <path class="cls-2" d="M554.89,93.48l7.9-15.93h53.25l3.43,6.92c3.31,6.67,10.11,10.89,17.55,10.89h13.52c.56,0,.93-.6.66-1.1l-47.06-89.89c-.56-1.08-1.69-1.82-3-1.82h-21.09c-2.83,0-5.29,1.6-6.52,3.95l-45.94,87.76c-.26.5.1,1.1.66,1.1h23.58c1.33,0,2.48-.77,3.03-1.88ZM571.27,60.47l18.29-36.72,18.14,36.72h-36.43Z"/>
        <path class="cls-2" d="M456.97,4.44c.55-1.12,1.7-1.88,3.03-1.88h23.57c.56,0,.93.6.66,1.1l-47.06,89.89c-.56,1.08-1.69,1.82-3,1.82h-21.09c-2.83,0-5.28-1.6-6.51-3.94L360.64,3.65c-.26-.5.1-1.1.66-1.1h23.58c1.32,0,2.47.76,3.02,1.87l34.67,69.72L456.97,4.44Z"/>
      </g>
      <g>
        <path class="cls-2" d="M361.83,167.35c0-7.45,4.45-11.66,10.81-11.66s11.18,4.57,11.18,11.06c0,7.45-5.05,12.02-11.18,12.02s-10.81-4.81-10.81-11.42M617.42,167.35c0-7.45,4.45-11.66,10.81-11.66s11.18,4.57,11.18,11.18c0,7.33-5.05,11.9-11.18,11.9s-10.81-4.81-10.81-11.42M510.83,155.45c4.33,0,6.49,1.92,7.45,4.21l-17.66,6.01c.12-6.25,4.09-10.21,10.21-10.21M446.79,168.79v-21.87h-11.42v20.55c0,6.25-2.28,10.69-8.77,10.69s-8.77-4.45-8.77-10.69v-20.55h-11.41v21.87c0,11.53,6.85,19.71,20.19,19.71s20.19-8.17,20.19-19.71M584.97,187.41h11.42v-40.5h-11.42v40.5ZM457.84,164.58v22.83h11.42v-21.99c0-6.37,3.48-8.89,14.06-8.53v-10.58c-17.9-1.32-25.47,5.41-25.47,18.27M529.46,183.45l-4.81-8.17c-2.88,2.16-6.13,3.6-11.29,3.6-4.81,0-8.77-1.56-10.94-4.81l28.12-8.89c-1.08-12.38-8.05-19.23-19.59-19.23-12.38,0-20.79,8.53-20.79,21.15s9.25,21.39,23.19,21.39c6.97,0,12.38-1.8,16.1-5.05M561.42,156.41c3.97,0,6.25,1.08,8.77,2.76l4.93-8.65c-3.73-3-8.41-4.57-14.66-4.57-11.9,0-21.75,7.93-21.75,21.27s9.61,21.27,22.35,21.27c6.37,0,10.81-1.44,14.54-4.81l-5.05-8.29c-2.4,1.8-4.69,3.01-8.77,3.01-6.61,0-11.54-4.21-11.54-10.94s4.93-11.06,11.18-11.06M383.94,187.41h10.69v-40.5h-10.69v3.85c-3.12-3.36-7.33-4.93-12.98-4.93-12.02,0-20.79,8.65-20.79,21.39s8.65,21.27,20.79,21.27c5.53,0,9.85-1.56,12.98-4.93v3.85ZM639.53,187.41h10.69v-40.5h-10.69v4.21c-3.36-3.6-7.93-5.29-12.98-5.29-12.02,0-20.79,8.65-20.79,21.39s8.65,21.27,20.79,21.27c5.05,0,9.61-1.68,12.98-5.41v4.33ZM584.97,139.59h11.42v-11.06h-11.42v11.06ZM345.25,157.85v-10.94h-18.27v-2.16c0-7.21,4.45-10.45,18.87-8.77v-10.58c-20.55-2.64-30.28,4.81-30.28,18.63v43.38h11.42v-29.56h18.27Z"/>
        <rect class="cls-3" x="297.78" y="146.91" width="10.45" height="10.94"/>
      </g>
    </g>
  </g>
</svg>
